# xmcd
#
# Track frame offsets:
#	150
#	23247
#	41078
#	60396
#	80186
#	98782
#	124418
#
# Disc length: 1879 seconds
# Revision: 0
# Processed by: cddbd v1.5.2PL0 Copyright (c) Steve Scherf et al.
# Submitted via: dBpowerAMP V12.0
#
DISCID=5b075507
DTITLE=Le'Andria Johnson - The Awakening Of Le'Andria Johnson
DYEAR=2001
DGENRE=Gospel
TTITLE0=Sunday Best Medley 1
TTITLE1=Cast The First Stone
TTITLE2=Make Him Like You
TTITLE3=New Reasons
TTITLE4=Jesus
TTITLE5=Struggle Not
TTITLE6=Sunday Best Medley 2
EXTD=
EXTT0=
EXTT1=
EXTT2=
EXTT3=
EXTT4=
EXTT5=
EXTT6=
PLAYORDER=
